# Blender v2.77 (sub 0) OBJ File: 'imac.obj'
# www.blender.org
mtllib imac.mtl
o imac
v 0.191591 0.192271 -0.027965
v 0.191591 0.196186 -0.003273
v 0.185956 0.199432 -0.029100
v 0.185956 0.203347 -0.004409
v -0.182240 0.200685 -0.029299
v -0.182240 0.204600 -0.004607
v -0.189490 0.195121 -0.028417
v -0.189490 0.199035 -0.003725
v -0.190759 -0.105323 0.019218
v -0.190759 -0.101408 0.043909
v -0.185125 -0.112484 0.020353
v -0.185125 -0.108569 0.045044
v 0.183071 -0.113737 0.020552
v 0.183071 -0.109822 0.045243
v 0.190322 -0.108172 0.019669
v 0.190322 -0.104257 0.044361
v 0.050340 0.032349 0.001306
v -0.052660 0.032349 0.001306
v 0.050340 -0.161783 -0.065785
v -0.052660 -0.161783 -0.065785
v 0.050340 -0.185415 -0.053333
v -0.052660 -0.185415 -0.053333
v 0.071017 -0.192432 0.085031
v -0.073338 -0.192432 0.085031
v 0.050340 0.029103 0.004126
v -0.052660 0.029103 0.004126
v 0.050340 -0.161544 -0.061487
v -0.052660 -0.161544 -0.061487
v 0.050340 -0.182004 -0.050709
v -0.052660 -0.182004 -0.050709
v 0.071017 -0.188132 0.085050
v 0.064144 -0.191989 0.088653
v -0.073338 -0.188132 0.085050
v -0.071747 -0.188301 0.086589
v -0.071747 -0.192277 0.086571
v 0.185956 0.203347 -0.004409
v -0.182240 0.204600 -0.004607
v -0.189490 0.199035 -0.003725
v -0.190759 -0.101408 0.043909
v -0.185125 -0.108569 0.045044
v 0.183071 -0.109822 0.045243
v 0.190322 -0.104257 0.044361
v 0.191591 0.196186 -0.003273
v 0.190322 -0.108172 0.019669
v 0.183071 -0.113737 0.020552
v -0.185125 -0.112484 0.020353
v -0.190759 -0.105323 0.019218
v -0.189490 0.195121 -0.028417
v -0.182240 0.200685 -0.029299
v 0.185956 0.199432 -0.029100
v 0.191591 0.192271 -0.027965
v -0.169916 0.181286 -0.000876
v -0.169916 -0.028508 0.032386
v 0.172475 -0.028508 0.032386
v 0.172475 0.181286 -0.000876
v -0.185284 -0.039672 0.034122
v -0.169916 -0.045427 0.035035
v -0.169916 -0.028226 0.034164
v 0.187591 0.189988 -0.002290
v 0.179827 0.198154 -0.003584
v 0.172475 0.198921 -0.003706
v 0.172475 0.181568 0.000901
v 0.172475 -0.028226 0.034164
v -0.185490 0.192837 -0.002742
v -0.169916 0.181568 0.000901
v -0.178240 0.198402 -0.003624
v 0.186322 -0.039344 0.034070
v 0.179071 -0.044909 0.034952
v 0.172475 0.180999 -0.002687
v 0.172475 -0.028795 0.030575
v -0.169916 0.180999 -0.002687
v -0.169916 -0.028795 0.030575
vt 0.9818 0.9838
vt 0.9818 0.7662
vt 0.0121 0.0162
vt 0.0121 0.2338
vt 0.0121 0.7338
vt 0.8132 0.2338
vt 0.8132 0.0162
vt 0.0121 0.5162
vt 0.0121 0.4838
vt 0.9818 0.7338
vt 0.9818 0.5162
vt 0.0121 0.2662
vt 0.0121 0.9838
vt 0.0121 0.7662
vt 0.8132 0.4838
vt 0.8132 0.2662
vt 0.0129 0.9684
vt 0.0134 0.1651
vt 0.0537 0.1452
vt 0.0537 0.2036
vt 0.0537 0.9284
vt 0.9509 0.9284
vt 0.9509 0.9894
vt 0.0319 0.9876
vt 0.9509 0.2036
vt 0.9681 0.1470
vt 0.9871 0.1662
vt 0.9905 0.9585
vt 0.9701 0.9867
vt 0.0082 0.0567
vt 0.0082 0.0443
vt 0.5648 0.0443
vt 0.5648 0.0567
vt 0.0082 0.1239
vt 0.0082 0.1115
vt 0.9053 0.1115
vt 0.9053 0.1239
vt 0.0082 0.0230
vt 0.0082 0.0106
vt 0.5648 0.0106
vt 0.5648 0.0230
vt 0.0082 0.0903
vt 0.0082 0.0779
vt 0.9053 0.0779
vt 0.9053 0.0903
vt 0.0078 0.9876
vt 0.0078 0.0124
vt 0.9922 0.0124
vt 0.9922 0.9876
vt 0.9897 0.9616
vt 0.9753 0.9838
vt 0.0321 0.9877
vt 0.0136 0.9704
vt 0.0103 0.0384
vt 0.0247 0.0162
vt 0.9679 0.0123
vt 0.9864 0.0296
vt 0.9897 0.0384
vt 0.9864 0.9704
vt 0.9679 0.9877
vt 0.0247 0.9838
vt 0.0103 0.9616
vt 0.0136 0.0296
vt 0.0321 0.0123
vt 0.9753 0.0162
vt 0.0499 0.5228
vt 0.0499 0.3150
vt 0.4603 0.3150
vt 0.4603 0.5228
vt 0.9824 0.9504
vt 0.6899 0.9921
vt 0.6822 0.9782
vt 0.6866 0.7041
vt 0.6899 0.7009
vt 0.9824 0.7426
vt 0.3347 0.2991
vt 0.3278 0.2991
vt 0.3278 0.0913
vt 0.3347 0.0913
vt 0.8800 0.3150
vt 0.0166 0.0496
vt 0.0166 0.2574
vt 0.8800 0.5228
vt 0.3036 0.0079
vt 0.3068 0.0111
vt 0.3036 0.2991
vt 0.6393 0.5528
vt 0.6656 0.6004
vt 0.5237 0.9921
vt 0.5178 0.9855
vt 0.6565 0.6009
vt 0.6337 0.5597
vt 0.3467 0.5473
vt 0.3467 0.5386
vt 0.9326 0.3168
vt 0.9410 0.3168
vt 0.9404 0.5910
vt 0.1868 0.5386
vt 0.3286 0.9302
vt 0.3023 0.9779
vt 0.0098 0.9921
vt 0.0097 0.9834
vt 0.2967 0.9710
vt 0.3195 0.9298
vt 0.1808 0.5452
vt 0.4770 0.5228
vt 0.4770 0.3150
vn -0.6136 0.7799 -0.1236
vn -0.7896 -0.6060 0.0961
vn 0.6136 -0.7799 0.1236
vn -0.0034 -0.9877 0.1566
vn -1.0000 0.0041 -0.0007
vn 0.0034 0.9877 -0.1566
vn 1.0000 -0.0041 0.0007
vn 0.7896 0.6060 -0.0961
vn -0.0430 0.2193 0.9747
vn 0.0452 0.0896 0.9950
vn -1.0000 0.0000 0.0000
vn 0.0000 -0.9877 0.1566
vn 1.0000 0.0000 0.0000
vn 0.0000 0.9877 -0.1566
vn 0.0000 0.1566 0.9877
vn -0.0000 -0.1566 -0.9877
vn -0.0000 0.3266 -0.9451
vn 0.0000 -0.9989 -0.0472
vn 0.0000 0.6558 0.7549
vn 0.0000 0.4661 0.8847
vn 0.0000 0.9990 0.0455
vn 0.9982 0.0192 -0.0561
vn 0.0103 0.4087 0.9126
vn -0.9982 0.0192 -0.0561
vn 0.0000 -0.3254 0.9456
vn -0.6956 -0.0032 0.7184
vn -0.0000 -0.4662 -0.8847
usemtl case
s off
f 6/1/1 5/2/1 7/3/1 8/4/1
f 12/5/2 10/6/2 9/7/2 11/8/2
f 16/9/3 14/10/3 13/11/3 15/12/3
f 14/10/4 12/5/4 11/8/4 13/11/4
f 10/6/5 8/4/5 7/3/5 9/7/5
f 4/13/6 3/14/6 5/2/6 6/1/6
f 2/15/7 16/9/7 15/12/7 1/16/7
f 4/13/8 2/15/8 1/16/8 3/14/8
usemtl ecrandcintour
f 64/17/9 56/18/9 57/19/9 58/20/9 65/21/9 62/22/9 61/23/9 66/24/9
f 62/22/10 63/25/10 58/20/10 57/19/10 68/26/10 67/27/10 59/28/10 60/29/10 61/23/10
f 62/30/11 69/31/11 70/32/11 63/33/11
f 65/34/12 71/35/12 69/36/12 62/37/12
f 58/38/13 72/39/13 71/40/13 65/41/13
f 63/42/14 70/43/14 72/44/14 58/45/14
usemtl ecrand_image
f 52/46/15 53/47/15 54/48/15 55/49/15
usemtl Couvercle_2
f 43/50/15 36/51/15 37/52/15 38/53/15 39/54/15 40/55/15 41/56/15 42/57/15
usemtl Couvercle_1
f 51/58/16 44/59/16 45/60/16 46/61/16 47/62/16 48/63/16 49/64/16 50/65/16
usemtl pied
f 19/66/17 20/67/17 18/68/17 17/69/17
f 21/70/18 23/71/18 32/72/18 35/73/18 24/74/18 22/75/18
f 25/76/19 17/77/19 18/78/19 26/79/19
f 28/80/20 30/81/20 29/82/20 27/83/20
f 29/82/21 30/81/21 33/84/21 34/85/21 31/86/21
f 21/87/22 19/88/22 17/89/22 25/90/22 27/91/22 29/92/22 31/93/22 23/94/22
f 34/95/23 35/96/23 32/97/23 23/94/23 31/93/23
f 18/98/24 20/99/24 22/100/24 24/101/24 33/102/24 30/103/24 28/104/24 26/105/24
f 28/80/25 27/83/25 25/106/25 26/107/25
f 24/101/26 35/96/26 34/95/26 33/102/26
f 21/70/27 22/75/27 20/67/27 19/66/27
